<mxfile host="app.diagrams.net" modified="2023-07-21T20:31:02.192Z" agent="Mozilla/5.0 (Macintosh; Intel Mac OS X 10_15_7) AppleWebKit/537.36 (KHTML, like Gecko) Chrome/114.0.0.0 Safari/537.36" etag="iutj_v4_JJlBHElKO-4I" version="21.6.2" type="device">
  <diagram name="Page-1" id="pIs1jfR8QSbnfMj5MZUH">
    <mxGraphModel dx="3617" dy="2969" grid="1" gridSize="10" guides="1" tooltips="1" connect="1" arrows="1" fold="1" page="1" pageScale="1" pageWidth="827" pageHeight="1169" math="0" shadow="0">
      <root>
        <mxCell id="0" />
        <mxCell id="1" parent="0" />
        <mxCell id="pRu6MvqzxngNQLvMv5Ed-4" value="" style="edgeStyle=orthogonalEdgeStyle;rounded=0;orthogonalLoop=1;jettySize=auto;html=1;" parent="1" source="pRu6MvqzxngNQLvMv5Ed-1" target="pRu6MvqzxngNQLvMv5Ed-3" edge="1">
          <mxGeometry relative="1" as="geometry" />
        </mxCell>
        <mxCell id="pRu6MvqzxngNQLvMv5Ed-1" value="Start" style="ellipse;whiteSpace=wrap;html=1;" parent="1" vertex="1">
          <mxGeometry x="1160" y="5" width="120" height="80" as="geometry" />
        </mxCell>
        <mxCell id="pRu6MvqzxngNQLvMv5Ed-2" value="&lt;b&gt;perishable_items Structure&lt;/b&gt;&lt;br&gt;item_name&lt;br&gt;item_price&lt;br&gt;item_quantity&lt;br&gt;&lt;div&gt;product_info&lt;/div&gt;&lt;div&gt;bag_cost&lt;/div&gt;" style="text;html=1;align=center;verticalAlign=middle;resizable=0;points=[];autosize=1;strokeColor=none;fillColor=none;" parent="1" vertex="1">
          <mxGeometry x="660" y="5" width="180" height="100" as="geometry" />
        </mxCell>
        <mxCell id="pRu6MvqzxngNQLvMv5Ed-36" value="" style="edgeStyle=orthogonalEdgeStyle;rounded=0;orthogonalLoop=1;jettySize=auto;html=1;" parent="1" source="pRu6MvqzxngNQLvMv5Ed-3" target="pRu6MvqzxngNQLvMv5Ed-35" edge="1">
          <mxGeometry relative="1" as="geometry" />
        </mxCell>
        <mxCell id="pRu6MvqzxngNQLvMv5Ed-3" value="Prompt user to select the perishable_items -&amp;gt; item_name from the list of perishable items" style="whiteSpace=wrap;html=1;" parent="1" vertex="1">
          <mxGeometry x="1155" y="155" width="130" height="70" as="geometry" />
        </mxCell>
        <mxCell id="pRu6MvqzxngNQLvMv5Ed-14" value="" style="endArrow=none;html=1;rounded=0;entryX=0;entryY=0.5;entryDx=0;entryDy=0;" parent="1" edge="1">
          <mxGeometry width="50" height="50" relative="1" as="geometry">
            <mxPoint x="1040" y="980.41" as="sourcePoint" />
            <mxPoint x="1145" y="980.41" as="targetPoint" />
          </mxGeometry>
        </mxCell>
        <mxCell id="pRu6MvqzxngNQLvMv5Ed-15" value="" style="endArrow=none;html=1;rounded=0;" parent="1" edge="1">
          <mxGeometry width="50" height="50" relative="1" as="geometry">
            <mxPoint x="1040" y="981" as="sourcePoint" />
            <mxPoint x="1040" y="171" as="targetPoint" />
          </mxGeometry>
        </mxCell>
        <mxCell id="pRu6MvqzxngNQLvMv5Ed-16" value="" style="endArrow=classic;html=1;rounded=0;entryX=0;entryY=0.25;entryDx=0;entryDy=0;" parent="1" edge="1">
          <mxGeometry width="50" height="50" relative="1" as="geometry">
            <mxPoint x="1040" y="171" as="sourcePoint" />
            <mxPoint x="1155" y="170.5" as="targetPoint" />
          </mxGeometry>
        </mxCell>
        <mxCell id="pRu6MvqzxngNQLvMv5Ed-22" value="" style="edgeStyle=orthogonalEdgeStyle;rounded=0;orthogonalLoop=1;jettySize=auto;html=1;" parent="1" source="pRu6MvqzxngNQLvMv5Ed-19" target="pRu6MvqzxngNQLvMv5Ed-21" edge="1">
          <mxGeometry relative="1" as="geometry" />
        </mxCell>
        <mxCell id="pRu6MvqzxngNQLvMv5Ed-19" value="Do the blackbox method of data lookup for product info and decide weather to cost by-weight or by-quantity" style="whiteSpace=wrap;html=1;" parent="1" vertex="1">
          <mxGeometry x="1152.5" y="415" width="135" height="80" as="geometry" />
        </mxCell>
        <mxCell id="pRu6MvqzxngNQLvMv5Ed-24" value="" style="edgeStyle=orthogonalEdgeStyle;rounded=0;orthogonalLoop=1;jettySize=auto;html=1;" parent="1" source="pRu6MvqzxngNQLvMv5Ed-21" target="pRu6MvqzxngNQLvMv5Ed-23" edge="1">
          <mxGeometry relative="1" as="geometry" />
        </mxCell>
        <mxCell id="pRu6MvqzxngNQLvMv5Ed-41" style="edgeStyle=orthogonalEdgeStyle;rounded=0;orthogonalLoop=1;jettySize=auto;html=1;entryX=0.5;entryY=0;entryDx=0;entryDy=0;" parent="1" source="pRu6MvqzxngNQLvMv5Ed-21" target="pRu6MvqzxngNQLvMv5Ed-40" edge="1">
          <mxGeometry relative="1" as="geometry" />
        </mxCell>
        <mxCell id="pRu6MvqzxngNQLvMv5Ed-21" value="Is the price &lt;br&gt;determined by weight?" style="rhombus;whiteSpace=wrap;html=1;" parent="1" vertex="1">
          <mxGeometry x="1145" y="545" width="150" height="130" as="geometry" />
        </mxCell>
        <mxCell id="pRu6MvqzxngNQLvMv5Ed-28" value="" style="edgeStyle=orthogonalEdgeStyle;rounded=0;orthogonalLoop=1;jettySize=auto;html=1;" parent="1" source="pRu6MvqzxngNQLvMv5Ed-23" target="pRu6MvqzxngNQLvMv5Ed-27" edge="1">
          <mxGeometry relative="1" as="geometry" />
        </mxCell>
        <mxCell id="pRu6MvqzxngNQLvMv5Ed-23" value="Do the blackbox method for&amp;nbsp;Weigh Item (scale) and determine the price by cost/weight value and store it in perishable_items -&amp;gt; item_price" style="whiteSpace=wrap;html=1;" parent="1" vertex="1">
          <mxGeometry x="1142" y="735" width="155" height="90" as="geometry" />
        </mxCell>
        <mxCell id="pRu6MvqzxngNQLvMv5Ed-25" value="Yes" style="text;html=1;align=center;verticalAlign=middle;resizable=0;points=[];autosize=1;strokeColor=none;fillColor=none;" parent="1" vertex="1">
          <mxGeometry x="1211" y="691" width="40" height="30" as="geometry" />
        </mxCell>
        <mxCell id="pRu6MvqzxngNQLvMv5Ed-30" value="" style="edgeStyle=orthogonalEdgeStyle;rounded=0;orthogonalLoop=1;jettySize=auto;html=1;" parent="1" source="pRu6MvqzxngNQLvMv5Ed-27" target="pRu6MvqzxngNQLvMv5Ed-29" edge="1">
          <mxGeometry relative="1" as="geometry" />
        </mxCell>
        <mxCell id="pRu6MvqzxngNQLvMv5Ed-27" value="Is this all the products &lt;br&gt;user wants to buy?" style="rhombus;whiteSpace=wrap;html=1;" parent="1" vertex="1">
          <mxGeometry x="1140" y="905" width="160" height="150" as="geometry" />
        </mxCell>
        <mxCell id="pRu6MvqzxngNQLvMv5Ed-29" value="update perishable_items structure" style="whiteSpace=wrap;html=1;" parent="1" vertex="1">
          <mxGeometry x="1160" y="1145" width="120" height="60" as="geometry" />
        </mxCell>
        <mxCell id="pRu6MvqzxngNQLvMv5Ed-31" value="Yes" style="text;html=1;align=center;verticalAlign=middle;resizable=0;points=[];autosize=1;strokeColor=none;fillColor=none;" parent="1" vertex="1">
          <mxGeometry x="1211" y="1085" width="40" height="30" as="geometry" />
        </mxCell>
        <mxCell id="pRu6MvqzxngNQLvMv5Ed-32" value="No" style="text;html=1;align=center;verticalAlign=middle;resizable=0;points=[];autosize=1;strokeColor=none;fillColor=none;" parent="1" vertex="1">
          <mxGeometry x="1070" y="955" width="40" height="30" as="geometry" />
        </mxCell>
        <mxCell id="pRu6MvqzxngNQLvMv5Ed-43" style="edgeStyle=orthogonalEdgeStyle;rounded=0;orthogonalLoop=1;jettySize=auto;html=1;entryX=1;entryY=0.5;entryDx=0;entryDy=0;" parent="1" source="pRu6MvqzxngNQLvMv5Ed-34" target="pRu6MvqzxngNQLvMv5Ed-27" edge="1">
          <mxGeometry relative="1" as="geometry">
            <Array as="points">
              <mxPoint x="1430" y="980" />
            </Array>
          </mxGeometry>
        </mxCell>
        <mxCell id="pRu6MvqzxngNQLvMv5Ed-34" value="Determine the price of the items by using perishable_items -&amp;gt; item_quantity using cost/quantity value and store it in perishable_items -&amp;gt; item_price" style="whiteSpace=wrap;html=1;" parent="1" vertex="1">
          <mxGeometry x="1345" y="805" width="170" height="100" as="geometry" />
        </mxCell>
        <mxCell id="pRu6MvqzxngNQLvMv5Ed-38" value="" style="edgeStyle=orthogonalEdgeStyle;rounded=0;orthogonalLoop=1;jettySize=auto;html=1;" parent="1" source="pRu6MvqzxngNQLvMv5Ed-35" target="pRu6MvqzxngNQLvMv5Ed-19" edge="1">
          <mxGeometry relative="1" as="geometry" />
        </mxCell>
        <mxCell id="pRu6MvqzxngNQLvMv5Ed-35" value="Do the blackbox method of&amp;nbsp;Fetch Products by Category by using the input given by the user" style="whiteSpace=wrap;html=1;" parent="1" vertex="1">
          <mxGeometry x="1155" y="285" width="130" height="70" as="geometry" />
        </mxCell>
        <mxCell id="pRu6MvqzxngNQLvMv5Ed-44" value="" style="edgeStyle=orthogonalEdgeStyle;rounded=0;orthogonalLoop=1;jettySize=auto;html=1;" parent="1" source="pRu6MvqzxngNQLvMv5Ed-40" target="pRu6MvqzxngNQLvMv5Ed-34" edge="1">
          <mxGeometry relative="1" as="geometry" />
        </mxCell>
        <mxCell id="pRu6MvqzxngNQLvMv5Ed-40" value="Prompt user to enter the quantity and store it in perishable_items -&amp;gt; quantity" style="whiteSpace=wrap;html=1;" parent="1" vertex="1">
          <mxGeometry x="1365" y="675" width="130" height="70" as="geometry" />
        </mxCell>
        <mxCell id="pRu6MvqzxngNQLvMv5Ed-42" value="No" style="text;html=1;align=center;verticalAlign=middle;resizable=0;points=[];autosize=1;strokeColor=none;fillColor=none;" parent="1" vertex="1">
          <mxGeometry x="1340" y="583" width="40" height="30" as="geometry" />
        </mxCell>
        <mxCell id="GgnZ6f3uAfLz8zsoU3rS-1" value="" style="edgeStyle=orthogonalEdgeStyle;rounded=0;orthogonalLoop=1;jettySize=auto;html=1;" edge="1" parent="1" source="GgnZ6f3uAfLz8zsoU3rS-2" target="GgnZ6f3uAfLz8zsoU3rS-4">
          <mxGeometry relative="1" as="geometry" />
        </mxCell>
        <mxCell id="GgnZ6f3uAfLz8zsoU3rS-2" value="Start" style="strokeWidth=2;html=1;shape=mxgraph.flowchart.start_1;whiteSpace=wrap;" vertex="1" parent="1">
          <mxGeometry x="1690.1399999999999" width="90" height="50" as="geometry" />
        </mxCell>
        <mxCell id="GgnZ6f3uAfLz8zsoU3rS-3" value="" style="edgeStyle=orthogonalEdgeStyle;rounded=0;orthogonalLoop=1;jettySize=auto;html=1;" edge="1" parent="1" source="GgnZ6f3uAfLz8zsoU3rS-4" target="GgnZ6f3uAfLz8zsoU3rS-7">
          <mxGeometry relative="1" as="geometry" />
        </mxCell>
        <mxCell id="GgnZ6f3uAfLz8zsoU3rS-4" value="Scan the product barcode" style="whiteSpace=wrap;html=1;strokeWidth=2;" vertex="1" parent="1">
          <mxGeometry x="1675.1399999999999" y="90" width="120" height="60" as="geometry" />
        </mxCell>
        <mxCell id="GgnZ6f3uAfLz8zsoU3rS-5" value="" style="edgeStyle=orthogonalEdgeStyle;rounded=0;orthogonalLoop=1;jettySize=auto;html=1;" edge="1" parent="1" source="GgnZ6f3uAfLz8zsoU3rS-7" target="GgnZ6f3uAfLz8zsoU3rS-8">
          <mxGeometry relative="1" as="geometry" />
        </mxCell>
        <mxCell id="GgnZ6f3uAfLz8zsoU3rS-6" value="" style="edgeStyle=orthogonalEdgeStyle;rounded=0;orthogonalLoop=1;jettySize=auto;html=1;" edge="1" parent="1" source="GgnZ6f3uAfLz8zsoU3rS-7" target="GgnZ6f3uAfLz8zsoU3rS-11">
          <mxGeometry relative="1" as="geometry" />
        </mxCell>
        <mxCell id="GgnZ6f3uAfLz8zsoU3rS-7" value="Is barcode scan successful?" style="rhombus;whiteSpace=wrap;html=1;strokeWidth=2;" vertex="1" parent="1">
          <mxGeometry x="1670.1399999999999" y="200" width="130" height="100" as="geometry" />
        </mxCell>
        <mxCell id="GgnZ6f3uAfLz8zsoU3rS-8" value="Ask to manually enter barcode number using keyboard" style="whiteSpace=wrap;html=1;strokeWidth=2;" vertex="1" parent="1">
          <mxGeometry x="1885.1399999999999" y="220" width="120" height="60" as="geometry" />
        </mxCell>
        <mxCell id="GgnZ6f3uAfLz8zsoU3rS-9" value="No" style="text;html=1;align=center;verticalAlign=middle;resizable=0;points=[];autosize=1;strokeColor=none;fillColor=none;" vertex="1" parent="1">
          <mxGeometry x="1810.1399999999999" y="220" width="40" height="30" as="geometry" />
        </mxCell>
        <mxCell id="GgnZ6f3uAfLz8zsoU3rS-10" value="" style="edgeStyle=orthogonalEdgeStyle;rounded=0;orthogonalLoop=1;jettySize=auto;html=1;" edge="1" parent="1" source="GgnZ6f3uAfLz8zsoU3rS-11" target="GgnZ6f3uAfLz8zsoU3rS-15">
          <mxGeometry relative="1" as="geometry" />
        </mxCell>
        <mxCell id="GgnZ6f3uAfLz8zsoU3rS-11" value="Look product_Info from process Data Lookup" style="whiteSpace=wrap;html=1;strokeWidth=2;" vertex="1" parent="1">
          <mxGeometry x="1675.1399999999999" y="360" width="120" height="60" as="geometry" />
        </mxCell>
        <mxCell id="GgnZ6f3uAfLz8zsoU3rS-12" value="Yes" style="text;html=1;align=center;verticalAlign=middle;resizable=0;points=[];autosize=1;strokeColor=none;fillColor=none;" vertex="1" parent="1">
          <mxGeometry x="1730.1399999999999" y="308" width="40" height="30" as="geometry" />
        </mxCell>
        <mxCell id="GgnZ6f3uAfLz8zsoU3rS-13" value="" style="edgeStyle=orthogonalEdgeStyle;rounded=0;orthogonalLoop=1;jettySize=auto;html=1;" edge="1" parent="1" source="GgnZ6f3uAfLz8zsoU3rS-15" target="GgnZ6f3uAfLz8zsoU3rS-17">
          <mxGeometry relative="1" as="geometry" />
        </mxCell>
        <mxCell id="GgnZ6f3uAfLz8zsoU3rS-14" value="" style="edgeStyle=orthogonalEdgeStyle;rounded=0;orthogonalLoop=1;jettySize=auto;html=1;" edge="1" parent="1" source="GgnZ6f3uAfLz8zsoU3rS-15" target="GgnZ6f3uAfLz8zsoU3rS-27">
          <mxGeometry relative="1" as="geometry" />
        </mxCell>
        <mxCell id="GgnZ6f3uAfLz8zsoU3rS-15" value="Is product_Info &lt;br&gt;found?" style="rhombus;whiteSpace=wrap;html=1;strokeWidth=2;" vertex="1" parent="1">
          <mxGeometry x="1670.1399999999999" y="470" width="130" height="110" as="geometry" />
        </mxCell>
        <mxCell id="GgnZ6f3uAfLz8zsoU3rS-16" value="" style="edgeStyle=orthogonalEdgeStyle;rounded=0;orthogonalLoop=1;jettySize=auto;html=1;" edge="1" parent="1" source="GgnZ6f3uAfLz8zsoU3rS-17" target="GgnZ6f3uAfLz8zsoU3rS-20">
          <mxGeometry relative="1" as="geometry" />
        </mxCell>
        <mxCell id="GgnZ6f3uAfLz8zsoU3rS-17" value="Display product_Info on the screen" style="whiteSpace=wrap;html=1;strokeWidth=2;" vertex="1" parent="1">
          <mxGeometry x="1675.1399999999999" y="640" width="120" height="60" as="geometry" />
        </mxCell>
        <mxCell id="GgnZ6f3uAfLz8zsoU3rS-18" value="Yes" style="text;html=1;align=center;verticalAlign=middle;resizable=0;points=[];autosize=1;strokeColor=none;fillColor=none;" vertex="1" parent="1">
          <mxGeometry x="1730.1399999999999" y="590" width="40" height="30" as="geometry" />
        </mxCell>
        <mxCell id="GgnZ6f3uAfLz8zsoU3rS-19" value="" style="edgeStyle=orthogonalEdgeStyle;rounded=0;orthogonalLoop=1;jettySize=auto;html=1;" edge="1" parent="1" source="GgnZ6f3uAfLz8zsoU3rS-20" target="GgnZ6f3uAfLz8zsoU3rS-24">
          <mxGeometry relative="1" as="geometry" />
        </mxCell>
        <mxCell id="GgnZ6f3uAfLz8zsoU3rS-20" value="Add product_Info to Receipt-&amp;gt; purchase list" style="whiteSpace=wrap;html=1;strokeWidth=2;" vertex="1" parent="1">
          <mxGeometry x="1675.1399999999999" y="750" width="120" height="60" as="geometry" />
        </mxCell>
        <mxCell id="GgnZ6f3uAfLz8zsoU3rS-21" value="" style="edgeStyle=orthogonalEdgeStyle;rounded=0;orthogonalLoop=1;jettySize=auto;html=1;entryX=0.5;entryY=0;entryDx=0;entryDy=0;" edge="1" parent="1" source="GgnZ6f3uAfLz8zsoU3rS-24">
          <mxGeometry relative="1" as="geometry">
            <mxPoint x="1735.1399999999999" y="1010" as="targetPoint" />
          </mxGeometry>
        </mxCell>
        <mxCell id="GgnZ6f3uAfLz8zsoU3rS-22" style="edgeStyle=orthogonalEdgeStyle;rounded=0;orthogonalLoop=1;jettySize=auto;html=1;exitX=0;exitY=0.5;exitDx=0;exitDy=0;entryX=0;entryY=0.25;entryDx=0;entryDy=0;" edge="1" parent="1" source="GgnZ6f3uAfLz8zsoU3rS-24" target="GgnZ6f3uAfLz8zsoU3rS-4">
          <mxGeometry relative="1" as="geometry">
            <Array as="points">
              <mxPoint x="1580.1399999999999" y="905" />
              <mxPoint x="1580.1399999999999" y="105" />
            </Array>
          </mxGeometry>
        </mxCell>
        <mxCell id="GgnZ6f3uAfLz8zsoU3rS-23" value="Yes" style="edgeLabel;html=1;align=center;verticalAlign=middle;resizable=0;points=[];" vertex="1" connectable="0" parent="GgnZ6f3uAfLz8zsoU3rS-22">
          <mxGeometry x="-0.922" y="-10" relative="1" as="geometry">
            <mxPoint as="offset" />
          </mxGeometry>
        </mxCell>
        <mxCell id="GgnZ6f3uAfLz8zsoU3rS-24" value="Are there more items?" style="rhombus;whiteSpace=wrap;html=1;strokeWidth=2;" vertex="1" parent="1">
          <mxGeometry x="1680.1399999999999" y="860" width="110" height="90" as="geometry" />
        </mxCell>
        <mxCell id="GgnZ6f3uAfLz8zsoU3rS-25" value="No" style="text;html=1;align=center;verticalAlign=middle;resizable=0;points=[];autosize=1;strokeColor=none;fillColor=none;" vertex="1" parent="1">
          <mxGeometry x="1730.1399999999999" y="958" width="40" height="30" as="geometry" />
        </mxCell>
        <mxCell id="GgnZ6f3uAfLz8zsoU3rS-26" value="" style="edgeStyle=orthogonalEdgeStyle;rounded=0;orthogonalLoop=1;jettySize=auto;html=1;" edge="1" parent="1" source="GgnZ6f3uAfLz8zsoU3rS-27" target="GgnZ6f3uAfLz8zsoU3rS-29">
          <mxGeometry relative="1" as="geometry" />
        </mxCell>
        <mxCell id="GgnZ6f3uAfLz8zsoU3rS-27" value="Display &quot;Product not found, please! wait for staff members&quot;" style="whiteSpace=wrap;html=1;strokeWidth=2;" vertex="1" parent="1">
          <mxGeometry x="1885.1399999999999" y="495" width="120" height="60" as="geometry" />
        </mxCell>
        <mxCell id="GgnZ6f3uAfLz8zsoU3rS-28" value="No" style="text;html=1;align=center;verticalAlign=middle;resizable=0;points=[];autosize=1;strokeColor=none;fillColor=none;" vertex="1" parent="1">
          <mxGeometry x="1820.1399999999999" y="495" width="40" height="30" as="geometry" />
        </mxCell>
        <mxCell id="GgnZ6f3uAfLz8zsoU3rS-29" value="Alert staff members about the problem." style="whiteSpace=wrap;html=1;strokeWidth=2;" vertex="1" parent="1">
          <mxGeometry x="1885.1399999999999" y="640" width="120" height="60" as="geometry" />
        </mxCell>
        <mxCell id="GgnZ6f3uAfLz8zsoU3rS-30" value="" style="edgeStyle=orthogonalEdgeStyle;rounded=0;orthogonalLoop=1;jettySize=auto;html=1;" edge="1" parent="1" source="GgnZ6f3uAfLz8zsoU3rS-32">
          <mxGeometry relative="1" as="geometry">
            <mxPoint x="1735.1399999999999" y="1160" as="targetPoint" />
          </mxGeometry>
        </mxCell>
        <mxCell id="GgnZ6f3uAfLz8zsoU3rS-31" value="" style="edgeStyle=orthogonalEdgeStyle;rounded=0;orthogonalLoop=1;jettySize=auto;html=1;" edge="1" parent="1" source="GgnZ6f3uAfLz8zsoU3rS-32" target="GgnZ6f3uAfLz8zsoU3rS-37">
          <mxGeometry relative="1" as="geometry" />
        </mxCell>
        <mxCell id="GgnZ6f3uAfLz8zsoU3rS-32" value="Do customer need bags?" style="strokeWidth=2;html=1;shape=mxgraph.flowchart.decision;whiteSpace=wrap;" vertex="1" parent="1">
          <mxGeometry x="1670.1399999999999" y="1010" width="130" height="100" as="geometry" />
        </mxCell>
        <mxCell id="GgnZ6f3uAfLz8zsoU3rS-33" value="" style="edgeStyle=orthogonalEdgeStyle;rounded=0;orthogonalLoop=1;jettySize=auto;html=1;" edge="1" parent="1" source="GgnZ6f3uAfLz8zsoU3rS-34" target="GgnZ6f3uAfLz8zsoU3rS-42">
          <mxGeometry relative="1" as="geometry" />
        </mxCell>
        <mxCell id="GgnZ6f3uAfLz8zsoU3rS-34" value="Add Taxes and calculate Receipt-&amp;gt;item_price" style="whiteSpace=wrap;html=1;strokeWidth=2;" vertex="1" parent="1">
          <mxGeometry x="1675.1399999999999" y="1160" width="120" height="60" as="geometry" />
        </mxCell>
        <mxCell id="GgnZ6f3uAfLz8zsoU3rS-35" value="No" style="text;html=1;align=center;verticalAlign=middle;resizable=0;points=[];autosize=1;strokeColor=none;fillColor=none;" vertex="1" parent="1">
          <mxGeometry x="1730.1399999999999" y="1118" width="40" height="30" as="geometry" />
        </mxCell>
        <mxCell id="GgnZ6f3uAfLz8zsoU3rS-36" value="" style="edgeStyle=orthogonalEdgeStyle;rounded=0;orthogonalLoop=1;jettySize=auto;html=1;" edge="1" parent="1" source="GgnZ6f3uAfLz8zsoU3rS-37" target="GgnZ6f3uAfLz8zsoU3rS-40">
          <mxGeometry relative="1" as="geometry" />
        </mxCell>
        <mxCell id="GgnZ6f3uAfLz8zsoU3rS-37" value="Prompt user to enter number of bags" style="whiteSpace=wrap;html=1;strokeWidth=2;" vertex="1" parent="1">
          <mxGeometry x="1840.1399999999999" y="1030" width="120" height="60" as="geometry" />
        </mxCell>
        <mxCell id="GgnZ6f3uAfLz8zsoU3rS-38" value="Yes" style="text;html=1;align=center;verticalAlign=middle;resizable=0;points=[];autosize=1;strokeColor=none;fillColor=none;" vertex="1" parent="1">
          <mxGeometry x="1790.1399999999999" y="1038" width="40" height="30" as="geometry" />
        </mxCell>
        <mxCell id="GgnZ6f3uAfLz8zsoU3rS-39" style="edgeStyle=orthogonalEdgeStyle;rounded=0;orthogonalLoop=1;jettySize=auto;html=1;exitX=0.5;exitY=1;exitDx=0;exitDy=0;entryX=1;entryY=0.5;entryDx=0;entryDy=0;" edge="1" parent="1" source="GgnZ6f3uAfLz8zsoU3rS-40" target="GgnZ6f3uAfLz8zsoU3rS-34">
          <mxGeometry relative="1" as="geometry" />
        </mxCell>
        <mxCell id="GgnZ6f3uAfLz8zsoU3rS-40" value="Add Receipt-&amp;gt;bag_cost to Receipt-&amp;gt;item_price" style="whiteSpace=wrap;html=1;strokeWidth=2;" vertex="1" parent="1">
          <mxGeometry x="2005.1399999999999" y="1030" width="120" height="60" as="geometry" />
        </mxCell>
        <mxCell id="GgnZ6f3uAfLz8zsoU3rS-74" value="" style="edgeStyle=orthogonalEdgeStyle;rounded=0;orthogonalLoop=1;jettySize=auto;html=1;" edge="1" parent="1" source="GgnZ6f3uAfLz8zsoU3rS-42">
          <mxGeometry relative="1" as="geometry">
            <mxPoint x="1735.1399999999994" y="1400" as="targetPoint" />
          </mxGeometry>
        </mxCell>
        <mxCell id="GgnZ6f3uAfLz8zsoU3rS-42" value="Go to Payment stage" style="whiteSpace=wrap;html=1;strokeWidth=2;" vertex="1" parent="1">
          <mxGeometry x="1675.1399999999999" y="1260" width="120" height="60" as="geometry" />
        </mxCell>
        <mxCell id="GgnZ6f3uAfLz8zsoU3rS-45" value="" style="edgeStyle=orthogonalEdgeStyle;rounded=0;orthogonalLoop=1;jettySize=auto;html=1;" edge="1" parent="1" source="GgnZ6f3uAfLz8zsoU3rS-46" target="GgnZ6f3uAfLz8zsoU3rS-48">
          <mxGeometry relative="1" as="geometry" />
        </mxCell>
        <mxCell id="GgnZ6f3uAfLz8zsoU3rS-46" value="Start" style="ellipse;whiteSpace=wrap;html=1;" vertex="1" parent="1">
          <mxGeometry x="605" y="195" width="90" height="50" as="geometry" />
        </mxCell>
        <mxCell id="GgnZ6f3uAfLz8zsoU3rS-47" value="" style="edgeStyle=orthogonalEdgeStyle;rounded=0;orthogonalLoop=1;jettySize=auto;html=1;" edge="1" parent="1" source="GgnZ6f3uAfLz8zsoU3rS-48" target="GgnZ6f3uAfLz8zsoU3rS-50">
          <mxGeometry relative="1" as="geometry" />
        </mxCell>
        <mxCell id="GgnZ6f3uAfLz8zsoU3rS-48" value="Enable software idle state" style="whiteSpace=wrap;html=1;" vertex="1" parent="1">
          <mxGeometry x="590" y="285" width="120" height="60" as="geometry" />
        </mxCell>
        <mxCell id="GgnZ6f3uAfLz8zsoU3rS-49" value="" style="edgeStyle=orthogonalEdgeStyle;rounded=0;orthogonalLoop=1;jettySize=auto;html=1;" edge="1" parent="1" source="GgnZ6f3uAfLz8zsoU3rS-50" target="GgnZ6f3uAfLz8zsoU3rS-52">
          <mxGeometry relative="1" as="geometry" />
        </mxCell>
        <mxCell id="GgnZ6f3uAfLz8zsoU3rS-50" value="update display with &quot;Welcome! Swipe the product on the barcode Scanner&quot;" style="whiteSpace=wrap;html=1;" vertex="1" parent="1">
          <mxGeometry x="590" y="385" width="120" height="60" as="geometry" />
        </mxCell>
        <mxCell id="GgnZ6f3uAfLz8zsoU3rS-51" value="" style="edgeStyle=orthogonalEdgeStyle;rounded=0;orthogonalLoop=1;jettySize=auto;html=1;" edge="1" parent="1" source="GgnZ6f3uAfLz8zsoU3rS-52" target="GgnZ6f3uAfLz8zsoU3rS-54">
          <mxGeometry relative="1" as="geometry" />
        </mxCell>
        <mxCell id="GgnZ6f3uAfLz8zsoU3rS-52" value="Set barcode scanner to enable" style="whiteSpace=wrap;html=1;" vertex="1" parent="1">
          <mxGeometry x="590" y="475" width="120" height="60" as="geometry" />
        </mxCell>
        <mxCell id="GgnZ6f3uAfLz8zsoU3rS-53" value="" style="edgeStyle=orthogonalEdgeStyle;rounded=0;orthogonalLoop=1;jettySize=auto;html=1;" edge="1" parent="1" source="GgnZ6f3uAfLz8zsoU3rS-54" target="GgnZ6f3uAfLz8zsoU3rS-56">
          <mxGeometry relative="1" as="geometry" />
        </mxCell>
        <mxCell id="GgnZ6f3uAfLz8zsoU3rS-54" value="Payment module: disable" style="whiteSpace=wrap;html=1;" vertex="1" parent="1">
          <mxGeometry x="590" y="585" width="120" height="60" as="geometry" />
        </mxCell>
        <mxCell id="GgnZ6f3uAfLz8zsoU3rS-55" value="" style="edgeStyle=orthogonalEdgeStyle;rounded=0;orthogonalLoop=1;jettySize=auto;html=1;" edge="1" parent="1" source="GgnZ6f3uAfLz8zsoU3rS-56" target="GgnZ6f3uAfLz8zsoU3rS-57">
          <mxGeometry relative="1" as="geometry" />
        </mxCell>
        <mxCell id="GgnZ6f3uAfLz8zsoU3rS-56" value="Receipt printer: Disable" style="whiteSpace=wrap;html=1;" vertex="1" parent="1">
          <mxGeometry x="590" y="695" width="120" height="60" as="geometry" />
        </mxCell>
        <mxCell id="GgnZ6f3uAfLz8zsoU3rS-57" value="End" style="ellipse;whiteSpace=wrap;html=1;" vertex="1" parent="1">
          <mxGeometry x="610" y="785" width="80" height="40" as="geometry" />
        </mxCell>
        <mxCell id="GgnZ6f3uAfLz8zsoU3rS-58" value="" style="edgeStyle=orthogonalEdgeStyle;rounded=0;orthogonalLoop=1;jettySize=auto;html=1;" edge="1" parent="1" source="GgnZ6f3uAfLz8zsoU3rS-59" target="GgnZ6f3uAfLz8zsoU3rS-61">
          <mxGeometry relative="1" as="geometry" />
        </mxCell>
        <mxCell id="GgnZ6f3uAfLz8zsoU3rS-59" value="Start" style="ellipse;whiteSpace=wrap;html=1;" vertex="1" parent="1">
          <mxGeometry x="805" y="185" width="90" height="50" as="geometry" />
        </mxCell>
        <mxCell id="GgnZ6f3uAfLz8zsoU3rS-60" value="" style="edgeStyle=orthogonalEdgeStyle;rounded=0;orthogonalLoop=1;jettySize=auto;html=1;" edge="1" parent="1" source="GgnZ6f3uAfLz8zsoU3rS-61" target="GgnZ6f3uAfLz8zsoU3rS-63">
          <mxGeometry relative="1" as="geometry" />
        </mxCell>
        <mxCell id="GgnZ6f3uAfLz8zsoU3rS-61" value="Enable Payment State" style="whiteSpace=wrap;html=1;" vertex="1" parent="1">
          <mxGeometry x="790" y="275" width="120" height="60" as="geometry" />
        </mxCell>
        <mxCell id="GgnZ6f3uAfLz8zsoU3rS-62" value="" style="edgeStyle=orthogonalEdgeStyle;rounded=0;orthogonalLoop=1;jettySize=auto;html=1;" edge="1" parent="1" source="GgnZ6f3uAfLz8zsoU3rS-63" target="GgnZ6f3uAfLz8zsoU3rS-65">
          <mxGeometry relative="1" as="geometry" />
        </mxCell>
        <mxCell id="GgnZ6f3uAfLz8zsoU3rS-63" value="Update display showing receipt and payment options" style="whiteSpace=wrap;html=1;" vertex="1" parent="1">
          <mxGeometry x="790" y="375" width="120" height="60" as="geometry" />
        </mxCell>
        <mxCell id="GgnZ6f3uAfLz8zsoU3rS-64" value="" style="edgeStyle=orthogonalEdgeStyle;rounded=0;orthogonalLoop=1;jettySize=auto;html=1;" edge="1" parent="1" source="GgnZ6f3uAfLz8zsoU3rS-65" target="GgnZ6f3uAfLz8zsoU3rS-67">
          <mxGeometry relative="1" as="geometry" />
        </mxCell>
        <mxCell id="GgnZ6f3uAfLz8zsoU3rS-65" value="Set barcode scanner to disable" style="whiteSpace=wrap;html=1;" vertex="1" parent="1">
          <mxGeometry x="790" y="465" width="120" height="60" as="geometry" />
        </mxCell>
        <mxCell id="GgnZ6f3uAfLz8zsoU3rS-66" value="" style="edgeStyle=orthogonalEdgeStyle;rounded=0;orthogonalLoop=1;jettySize=auto;html=1;" edge="1" parent="1" source="GgnZ6f3uAfLz8zsoU3rS-67" target="GgnZ6f3uAfLz8zsoU3rS-69">
          <mxGeometry relative="1" as="geometry" />
        </mxCell>
        <mxCell id="GgnZ6f3uAfLz8zsoU3rS-67" value="Payment module: Enable" style="whiteSpace=wrap;html=1;" vertex="1" parent="1">
          <mxGeometry x="790" y="575" width="120" height="60" as="geometry" />
        </mxCell>
        <mxCell id="GgnZ6f3uAfLz8zsoU3rS-68" value="" style="edgeStyle=orthogonalEdgeStyle;rounded=0;orthogonalLoop=1;jettySize=auto;html=1;" edge="1" parent="1" source="GgnZ6f3uAfLz8zsoU3rS-69" target="GgnZ6f3uAfLz8zsoU3rS-70">
          <mxGeometry relative="1" as="geometry" />
        </mxCell>
        <mxCell id="GgnZ6f3uAfLz8zsoU3rS-69" value="Receipt printer : Enable" style="whiteSpace=wrap;html=1;" vertex="1" parent="1">
          <mxGeometry x="790" y="685" width="120" height="60" as="geometry" />
        </mxCell>
        <mxCell id="GgnZ6f3uAfLz8zsoU3rS-70" value="End" style="ellipse;whiteSpace=wrap;html=1;" vertex="1" parent="1">
          <mxGeometry x="810" y="775" width="80" height="40" as="geometry" />
        </mxCell>
        <mxCell id="GgnZ6f3uAfLz8zsoU3rS-71" value="&lt;font style=&quot;font-size: 18px;&quot;&gt;Idle State&lt;/font&gt;" style="text;html=1;align=center;verticalAlign=middle;resizable=0;points=[];autosize=1;strokeColor=none;fillColor=none;" vertex="1" parent="1">
          <mxGeometry x="605" y="138" width="100" height="40" as="geometry" />
        </mxCell>
        <mxCell id="GgnZ6f3uAfLz8zsoU3rS-72" value="&lt;font style=&quot;font-size: 18px;&quot;&gt;Payment State&lt;/font&gt;" style="text;html=1;align=center;verticalAlign=middle;resizable=0;points=[];autosize=1;strokeColor=none;fillColor=none;" vertex="1" parent="1">
          <mxGeometry x="775" y="138" width="140" height="40" as="geometry" />
        </mxCell>
        <mxCell id="GgnZ6f3uAfLz8zsoU3rS-75" value="End" style="strokeWidth=2;html=1;shape=mxgraph.flowchart.start_1;whiteSpace=wrap;" vertex="1" parent="1">
          <mxGeometry x="1685.1399999999999" y="1510" width="100" height="60" as="geometry" />
        </mxCell>
        <mxCell id="GgnZ6f3uAfLz8zsoU3rS-79" value="" style="edgeStyle=orthogonalEdgeStyle;rounded=0;orthogonalLoop=1;jettySize=auto;html=1;" edge="1" parent="1" source="GgnZ6f3uAfLz8zsoU3rS-76" target="GgnZ6f3uAfLz8zsoU3rS-75">
          <mxGeometry relative="1" as="geometry" />
        </mxCell>
        <mxCell id="GgnZ6f3uAfLz8zsoU3rS-76" value="update perishable_items structure" style="whiteSpace=wrap;html=1;" vertex="1" parent="1">
          <mxGeometry x="1675.1399999999999" y="1400" width="120" height="60" as="geometry" />
        </mxCell>
      </root>
    </mxGraphModel>
  </diagram>
</mxfile>
